<?xml version="1.0" encoding="UTF-8" standalone="no"?>
<svg xmlns="http://www.w3.org/2000/svg" width="800" height="600" viewBox="0 0 800 600">
  <!-- Sky -->
  <rect x="0" y="0" width="800" height="500" fill="#5C94FC"/>
  
  <!-- Clouds -->
  <ellipse cx="100" cy="100" rx="50" ry="30" fill="#FFFFFF"/>
  <ellipse cx="150" cy="90" rx="40" ry="25" fill="#FFFFFF"/>
  <ellipse cx="200" cy="100" rx="50" ry="30" fill="#FFFFFF"/>
  
  <ellipse cx="500" cy="150" rx="50" ry="30" fill="#FFFFFF"/>
  <ellipse cx="550" cy="140" rx="40" ry="25" fill="#FFFFFF"/>
  <ellipse cx="600" cy="150" rx="50" ry="30" fill="#FFFFFF"/>
  
  <!-- Hills -->
  <ellipse cx="200" cy="500" rx="200" ry="100" fill="#00A800"/>
  <ellipse cx="600" cy="500" rx="200" ry="100" fill="#00A800"/>
  
  <!-- Bushes -->
  <ellipse cx="300" cy="480" rx="40" ry="30" fill="#00C800"/>
  <ellipse cx="350" cy="470" rx="30" ry="25" fill="#00C800"/>
  <ellipse cx="400" cy="480" rx="40" ry="30" fill="#00C800"/>
  
  <!-- Question Blocks -->
  <rect x="100" y="300" width="50" height="50" fill="#E5BF00" stroke="#000000" stroke-width="2"/>
  <text x="125" y="335" font-family="Arial" font-size="30" text-anchor="middle" fill="#FFFFFF">?</text>
  
  <rect x="650" y="250" width="50" height="50" fill="#E5BF00" stroke="#000000" stroke-width="2"/>
  <text x="675" y="285" font-family="Arial" font-size="30" text-anchor="middle" fill="#FFFFFF">?</text>
</svg>
