<?xml version="1.0" encoding="UTF-8" standalone="no"?>
<svg xmlns="http://www.w3.org/2000/svg" width="800" height="100" viewBox="0 0 800 100">
  <!-- Ground Base -->
  <rect x="0" y="0" width="800" height="100" fill="#C84C0C"/>
  
  <!-- Grass Top -->
  <rect x="0" y="0" width="800" height="20" fill="#00A800"/>
  
  <!-- Brick Pattern -->
  <g fill="none" stroke="#A03000" stroke-width="2">
    <!-- Horizontal lines -->
    <line x1="0" y1="40" x2="800" y2="40" />
    <line x1="0" y1="80" x2="800" y2="80" />
    
    <!-- Vertical lines - staggered pattern -->
    <line x1="50" y1="0" x2="50" y2="40" />
    <line x1="150" y1="0" x2="150" y2="40" />
    <line x1="250" y1="0" x2="250" y2="40" />
    <line x1="350" y1="0" x2="350" y2="40" />
    <line x1="450" y1="0" x2="450" y2="40" />
    <line x1="550" y1="0" x2="550" y2="40" />
    <line x1="650" y1="0" x2="650" y2="40" />
    <line x1="750" y1="0" x2="750" y2="40" />
    
    <line x1="0" y1="40" x2="0" y2="80" />
    <line x1="100" y1="40" x2="100" y2="80" />
    <line x1="200" y1="40" x2="200" y2="80" />
    <line x1="300" y1="40" x2="300" y2="80" />
    <line x1="400" y1="40" x2="400" y2="80" />
    <line x1="500" y1="40" x2="500" y2="80" />
    <line x1="600" y1="40" x2="600" y2="80" />
    <line x1="700" y1="40" x2="700" y2="80" />
    
    <line x1="50" y1="80" x2="50" y2="100" />
    <line x1="150" y1="80" x2="150" y2="100" />
    <line x1="250" y1="80" x2="250" y2="100" />
    <line x1="350" y1="80" x2="350" y2="100" />
    <line x1="450" y1="80" x2="450" y2="100" />
    <line x1="550" y1="80" x2="550" y2="100" />
    <line x1="650" y1="80" x2="650" y2="100" />
    <line x1="750" y1="80" x2="750" y2="100" />
  </g>
</svg>
