<?xml version="1.0" encoding="UTF-8" standalone="no"?>
<svg xmlns="http://www.w3.org/2000/svg" width="100" height="100" viewBox="0 0 100 100">
  <!-- Mario Character -->
  <!-- Hat -->
  <rect x="25" y="15" width="50" height="15" fill="#E7471D"/>
  <!-- Face -->
  <rect x="30" y="30" width="40" height="35" fill="#F8C8A0"/>
  <!-- Hair -->
  <rect x="25" y="30" width="5" height="10" fill="#4A3C2C"/>
  <rect x="30" y="25" width="10" height="5" fill="#4A3C2C"/>
  <!-- Eyes -->
  <rect x="40" y="35" width="8" height="8" fill="#000000"/>
  <!-- Mustache -->
  <rect x="35" y="50" width="30" height="5" fill="#4A3C2C"/>
  <!-- Nose -->
  <rect x="55" y="40" width="10" height="10" fill="#F8C8A0"/>
  <!-- Shirt -->
  <rect x="30" y="65" width="40" height="20" fill="#E7471D"/>
  <!-- Overalls -->
  <rect x="35" y="65" width="10" height="25" fill="#0000C8"/>
  <rect x="55" y="65" width="10" height="25" fill="#0000C8"/>
  <rect x="45" y="65" width="10" height="10" fill="#0000C8"/>
  <!-- Buttons -->
  <circle cx="45" cy="70" r="3" fill="#FFFF00"/>
  <circle cx="55" cy="70" r="3" fill="#FFFF00"/>
  <!-- Arms -->
  <rect x="20" y="65" width="10" height="15" fill="#F8C8A0"/>
  <rect x="70" y="65" width="10" height="15" fill="#F8C8A0"/>
</svg>
